<?xml version="1.0" encoding="UTF-8"?>
<svg width="320" id="placard" data-name="placard" xmlns="http://www.w3.org/2000/svg" viewBox="0 0 322.39 288.69">
  <defs>
    <style>
      .cls-1 {
        fill: #fff;
      }

      .cls-2 {
        fill: #9e485c;
      }

      .cls-3 {
        fill: #46131f;
      }

      .cls-4 {
        fill: none;
        stroke: #94231e;
        stroke-width: 3px;
      }
    </style>
  </defs>
  <g id="Layer_1-2" data-name="Layer 1">
    <g>
      <path class="cls-3" d="M246.03,288.34L12.92,234.26l174.94-56.25,134.18,58.25-76.02,52.08Z"/>
      <path class="cls-1" d="M1.76,244.38L49.01,1.66l239.6,29.4,31.99,203.18-66.11-8.11-10.64,60.82L1.76,244.38Z"/>
      <path class="cls-4" d="M288.6,31.06L49.01,1.66,1.76,244.38l242.07,42.57,10.64-60.82M288.6,31.06l31.99,203.18-66.11-8.11M288.6,31.06l-34.12,195.07"/>
      <path class="cls-2" d="M142.09,185.37c-3.82-.25-6.72-1-8.71-2.24-1.99-1.16-2.99-2.65-2.99-4.48,0-.5,.04-1.41,.12-2.74,.17-1.24,.46-3.19,.87-5.85,.5-2.74,1.16-6.43,1.99-11.07,.41-1.74,.83-3.77,1.24-6.1,.42-2.4,.83-4.73,1.24-6.97-1.66-.17-3.36-.29-5.1-.37-1.74-.08-2.94-.12-3.61-.12-.83,0-2.2,.04-4.11,.12-1.91,.08-4.06,.21-6.47,.37-2.4,.08-4.81,.25-7.22,.5-2.32,.17-4.35,.37-6.1,.62-1.66,.16-2.74,.37-3.23,.62,0-2.16,.62-3.98,1.87-5.47s2.69-3.03,4.35-4.6c2.99-2.74,6.59-6.14,10.82-10.2,4.31-4.15,8.88-8.63,13.68-13.44,4.81-4.81,9.41-9.7,13.81-14.68,4.4-5.06,8.21-9.83,11.45-14.31,.66,.33,1.33,.83,1.99,1.49,.75,.58,1.12,1.53,1.12,2.86,0,1.99-.83,4.27-2.49,6.84-.41,1.91-1.04,4.85-1.87,8.83s-1.78,8.79-2.86,14.43c-1.08,5.56-2.24,11.65-3.48,18.29h1.87c3.15,0,5.56-.08,7.22-.25,1.74-.25,3.52-.62,5.35-1.12-1.99,2.74-4.31,5.02-6.97,6.84-2.65,1.74-5.35,2.7-8.09,2.86h-.87c-.08,.25-.21,.91-.37,1.99-.17,.99-.37,2.32-.62,3.98-.33,2.24-.75,4.85-1.24,7.84-.42,2.9-.83,5.93-1.24,9.08-.42,3.15-.75,6.18-.99,9.08-.25,2.9-.37,5.35-.37,7.34Zm-27.62-47.9c1.66-.17,3.4-.25,5.22-.25,1.82-.08,3.82-.12,5.97-.12s4.23,.04,6.22,.12c2.07,0,4.02,.04,5.85,.12,1.08-5.06,2.12-9.87,3.11-14.43,1.08-4.56,2.24-8.87,3.48-12.94-2.49,2.32-5.14,4.73-7.96,7.22l-8.21,7.46c-2.74,2.49-5.39,4.89-7.96,7.22-1,1-1.99,1.95-2.99,2.86-.91,.91-1.83,1.82-2.74,2.74Z"/>
    </g>
  </g>
</svg>