<?xml version="1.0" encoding="UTF-8"?>
<svg width="743" id="roses" data-name="roses" xmlns="http://www.w3.org/2000/svg" viewBox="0 0 751.15 225.83">
  <defs>
    <style>
      .cls-1 {
        stroke-width: 8px;
      }

      .cls-1, .cls-2, .cls-3, .cls-4 {
        fill: none;
      }

      .cls-1, .cls-3, .cls-4 {
        stroke: #94231e;
        stroke-linecap: round;
      }

      .cls-5 {
        fill: #f99f9f;
      }

      .cls-6 {
        fill: #2d0637;
      }

      .cls-2 {
        stroke: #2d0637;
        stroke-width: 5px;
      }

      .cls-3 {
        stroke-width: 6px;
      }

      .cls-4 {
        stroke-width: 7px;
      }
    </style>
  </defs>
  <g id="Layer_1-2" data-name="Layer 1">
    <g>
      <path class="cls-6" d="M462.09,143.51c12.38,14.09,46.17,30.38,89.37,47.32,32.76,12.85,154.87,23.52,188.72,20.23l6.77,12.25c-10.78,.19-74.33-1.44-88.2-4.77-18.21-4.37-106.07-11.6-129.69-24.12-23.62-12.52-75.83-37.92-90.7-47.11-14.21-8.79-93.98-24.88-118.62-31.84,1.14-16.81,4.38-44.33,8.28-20,4.88,30.42,121.69,33.95,134.07,48.04Z"/>
      <path class="cls-2" d="M740.18,211.06c-33.85,3.29-155.96-7.37-188.72-20.23-43.2-16.95-76.99-33.24-89.37-47.32-12.38-14.09-129.2-17.62-134.07-48.04-3.9-24.33-7.15,3.19-8.28,20,24.64,6.96,104.41,23.06,118.62,31.84,14.88,9.2,67.09,34.59,90.7,47.11,23.62,12.52,111.49,19.75,129.69,24.12,13.86,3.33,77.42,4.96,88.2,4.77l-6.77-12.25Z"/>
      <path class="cls-5" d="M323.94,55.66c8.43,20.79,2.27,34.95-2,49.94-3.89,11.76-16.14,16.64-27.45,18.93-8.26,1.67-16.03,1.97-19.68,2.55-11.04,1.77-24.56-2.55-24.56-2.55,0,0-23.55-16.04-34.85-21.96-17.44-9.14-41.53-27.6-43.92-35.41-11.84-38.56,9.82-26.12,11.43-37.25,1.61-11.14,8.66-20.17,14.24-23.21,14.41-7.84,46.32-1.01,58.43,.36l15.91,5.08,16.08,8.49s34.82,25.34,36.37,35.01Z"/>
      <path class="cls-3" d="M206.07,38.47c-5.67-12.83-5.36-27.58,9.89-26.67,19.05,1.14,41.39,13.95,40.65,32.31-.76,18.83-5.73,34.89,11.05,38.31,6.22,1.27,19.73,3.3,31.6,11.16,4.64,3.07,8.74,16.38-4.76,30.95m27.45-18.93c4.26-15,10.42-29.15,2-49.94-1.55-9.68-36.37-35.01-36.37-35.01l-16.08-8.49-15.91-5.08c-12.11-1.37-44.02-8.2-58.43-.36-5.58,3.04-12.63,12.07-14.24,23.21-1.61,11.14-23.27-1.31-11.43,37.25,2.4,7.8,26.48,26.26,43.92,35.41,11.3,5.92,34.85,21.96,34.85,21.96,0,0,13.53,4.32,24.56,2.55,8.65-1.39,40.39-1.13,47.13-21.49Z"/>
      <path class="cls-3" d="M255.36,55.19c-9.22-1.77-14.89,11.64-24.01,18.48-18,13.5-36.43,3.74-41.24-2.25-25.52-31.75,6.28-40.24,12.24-44.25"/>
      <path class="cls-4" d="M217.48,47.95c5.02,1.87,3.24,11.28-.07,11.81-3.31,.53-5.77-.31-6.9-1.47-1.13-1.15-1.93-2.39-1.21-4.98,.72-2.6,.09-9.44,1.93-9.73,1.84-.29,5.42-6.21,9.1-5.66,3.68,.56,6.6-3.54,9.22,1,2.62,4.54,2.37,5.35,1.46,9.12-.9,3.77-.39,5.79-2.67,8.06-2.28,2.27-4.54,7.02-6.01,7.26-1.47,.24-2.62,4.1-4.92,3.9-2.3-.21-8.83,.98-11.06,0-2.23-.98-6.17-4.35-7.63-6.41-1.46-2.06-.74-6.94,.23-10.34,.96-3.4,3.09-5.46,5.4-8.69,1.65-2.31,10.58-8.15,14.88-10.78,4.64-2.84,11.52-5.85,15.88-1.02,3.49,3.87,25.26,13.94-2.09,42.17"/>
      <path class="cls-6" d="M313.43,146.59c13.32,9.47,51.08,18.97,99.6,28.26,36.79,7.04,176.29,5.8,215.35,.84l7,8.54c-12.38,.94-85.23,4.49-100.94,3.06-20.62-1.87-121.03-.64-147.35-8.12-26.32-7.48-84.65-22.32-101.15-28-15.76-5.42-106.31-11.35-134.15-14.65,2.36-12.49,7.82-33.05,10.77-15.38,3.68,22.08,137.55,15.97,150.87,25.45Z"/>
      <path class="cls-2" d="M628.39,175.69c-39.06,4.96-178.56,6.2-215.35-.84-48.52-9.28-86.28-18.78-99.6-28.26-13.32-9.47-147.19-3.36-150.87-25.45-2.94-17.67-8.4,2.89-10.77,15.38,27.84,3.3,118.4,9.23,134.15,14.65,16.5,5.68,74.83,20.52,101.15,28,26.32,7.48,126.73,6.26,147.35,8.12,15.71,1.42,88.55-2.12,100.94-3.06l-7-8.54Z"/>
      <path class="cls-5" d="M161.02,137.09c-21.53,20.71-13.28,27.36-33.89,35.75-8.02,5.63-50.46-1.67-50.46-1.67l-17.3-5.61-14.74-7.86c-9.42-7.73-36.57-25.85-40.99-41.64-1.71-6.12-.15-17.47,6.71-26.39,6.86-8.92-17.16-15.77,18.74-34.16,7.27-3.72,37.29,.68,56,6.81,12.13,3.97,40.04,9.68,40.04,9.68,0,0,12.53,6.68,18.95,15.83,5.04,7.17,27.35,29.75,17.45,48.77-.17,.18-.35,.35-.52,.5Z"/>
      <path class="cls-3" d="M161.54,136.59c-22.19,21.1-13.64,27.8-34.42,36.25-8.02,5.63-50.46-1.67-50.46-1.67l-17.3-5.61-14.74-7.86c-9.42-7.73-36.57-25.85-40.99-41.64-1.71-6.12-.15-17.47,6.71-26.39,6.86-8.92-17.16-15.77,18.74-34.16,7.27-3.72,37.29,.68,56,6.81,12.13,3.97,40.04,9.68,40.04,9.68,0,0,12.53,6.68,18.95,15.83,5.04,7.17,27.35,29.75,17.45,48.77Zm0,0c-8.53,9.08-24.15-21.58-29.6-22.77-13.91-3.04-19.62,3.57-24.86,0-14.15-9.65-22.2,5.12-35.17,18.79-12.65,13.33-37.4,6.24-51.5-6.62-11.28-10.29-.93-20.8,12.23-25.68"/>
      <path class="cls-3" d="M78.99,123.99c-7.69-5.38,1.24-39.33-8.14-45.82-13-9-18.07-13.01-25.71-12.28-40.55,3.84-29.57,36.71-28.29,43.78"/>
      <path class="cls-1" d="M47.38,101.88c4.84,2.29,10.34-5.54,8.41-8.28-1.93-2.74-4.25-3.92-5.86-3.92-1.61,0-3.06,.28-4.42,2.6s-6.71,6.64-5.63,8.17c1.07,1.52-.68,8.22,2.28,10.46,2.96,2.25,2.07,7.2,7.15,5.91,5.08-1.29,5.48-2.03,7.56-5.31,2.07-3.28,3.88-4.32,3.92-7.54,.04-3.22,1.88-8.15,1.02-9.37-.86-1.22-.9-6.2-2.65-7.7-1.75-1.51-3.44-5.55-5.7-6.47-2.26-.92-7.42-1.39-9.92-1-2.49,.38-5.49,4.31-7.26,7.38-1.76,3.06-1.76,6.02-2.47,9.93-.5,2.79,1.53,13.27,2.64,18.18,1.2,5.31,3.83,12.34,10.34,12.09,5.21-.2,24.55,6.65,24.55-46.58"/>
    </g>
  </g>
</svg>