<?xml version="1.0" encoding="UTF-8"?>
<svg width="445" id="stopwatch" data-name="stopwatch" xmlns="http://www.w3.org/2000/svg" viewBox="0 0 445 531.04">
  <defs>
    <style>
      .cls-1 {
        fill: #f99f9f;
      }

      .cls-2 {
        fill: #b52d27;
      }

      .cls-3 {
        fill: #23052b;
      }

      .cls-4 {
        fill: #2d0637;
      }

      .cls-5 {
        stroke: #94231e;
        stroke-width: 15px;
      }

      .cls-5, .cls-6 {
        fill: none;
      }

      .cls-6 {
        stroke: #2d0637;
        stroke-width: 10px;
      }
    </style>
  </defs>
  <g id="stopwatch">
    <g>
      <path id="Ellipse_3" data-name="Ellipse 3" class="cls-6" d="M165.94,30.54c6.46,12.95,5.4,28.58-2.29,43.67-7.69,15.09-21.9,29.31-40.93,38.8-19.03,9.5-38.93,12.3-55.62,9.37s-29.81-11.48-36.27-24.43c-6.46-12.95-5.4-28.58,2.29-43.67,7.7-15.09,21.9-29.31,40.93-38.8,19.03-9.5,38.93-12.3,55.62-9.37,16.69,2.93,29.81,11.48,36.27,24.43Z"/>
      <circle id="Ellipse_1" data-name="Ellipse 1" class="cls-3" cx="222.5" cy="308.54" r="222.5"/>
      <rect id="Rectangle_3" data-name="Rectangle 3" class="cls-3" x="85.81" y="86.57" width="68" height="39" transform="translate(-34.75 64.66) rotate(-26.52)"/>
      <path id="Rectangle_2" data-name="Rectangle 2" class="cls-4" d="M63.71,72.05l62.64-31.25c9.39-4.68,20.8-.87,25.48,8.52h0c4.68,9.39,.87,20.8-8.52,25.48l-62.64,31.25c-9.39,4.68-20.8,.87-25.48-8.52h0c-4.68-9.39-.87-20.8,8.52-25.48h0Z"/>
      <path id="Rectangle_2_2" data-name="Rectangle 2 2" class="cls-4" d="M276.26,63.91l38.89,13c7.86,2.63,12.1,11.12,9.47,18.98h0c-2.63,7.86-11.12,12.1-18.98,9.47l-38.89-13c-7.86-2.63-12.1-11.12-9.47-18.98h0c2.63-7.86,11.12-12.1,18.98-9.47Z"/>
      <circle id="Ellipse_2" data-name="Ellipse 2" class="cls-1" cx="222.95" cy="309.43" r="186.5"/>
      <g id="hearts">
        <g id="Group_4" data-name="Group 4">
          <path id="Vector" class="cls-2" d="M357.24,385.6c-2.49-1.65-6-1.9-10.43-.75-2.01,.52-3.97,1.25-5.83,2.17-.12,.06-.22,.15-.29,.26-.07,.11-.12,.24-.13,.37-.04,.48-.79,11.65,5.06,15.52,1.02,.68,2.24,1.02,3.46,.97,1.23-.05,2.41-.48,3.38-1.24,.97-.76,1.67-1.8,2.01-2.98,.34-1.18,.3-2.44-.11-3.6,1.23-.07,2.4-.53,3.35-1.3,.95-.78,1.64-1.83,1.96-3.02,.32-1.19,.26-2.44-.18-3.59-.43-1.15-1.22-2.13-2.24-2.81h-.01Z"/>
          <path id="Vector_2" data-name="Vector 2" class="cls-2" d="M100.71,215.91c2.49,1.65,4.09,4.78,4.77,9.31,.31,2.06,.4,4.14,.29,6.21-.01,.13-.05,.26-.13,.37-.07,.11-.17,.2-.29,.26-.43,.22-10.41,5.29-16.26,1.42-1.03-.68-1.81-1.66-2.24-2.81-.44-1.15-.5-2.41-.18-3.59,.32-1.19,1-2.24,1.96-3.02,.95-.78,2.12-1.23,3.35-1.3-.41-1.16-.45-2.41-.11-3.6,.34-1.18,1.05-2.22,2.01-2.98,.97-.76,2.15-1.19,3.38-1.24,1.23-.05,2.44,.29,3.46,.97h0Z"/>
        </g>
        <g id="Group_3" data-name="Group 3">
          <path id="Vector_3" data-name="Vector 3" class="cls-2" d="M90.25,387.63c2.67-1.33,4.64-4.24,5.86-8.66,.55-2,.9-4.06,1.04-6.13,0-.13-.02-.26-.08-.38-.06-.12-.15-.22-.26-.3-.4-.27-9.69-6.51-15.97-3.38-1.1,.55-2,1.43-2.57,2.52s-.78,2.33-.61,3.54c.17,1.22,.72,2.35,1.58,3.23,.85,.89,1.96,1.48,3.17,1.7-.55,1.1-.74,2.34-.55,3.55,.2,1.21,.77,2.33,1.64,3.2,.87,.87,1.99,1.44,3.2,1.64s2.46,0,3.56-.54h0Z"/>
          <path id="Vector_4" data-name="Vector 4" class="cls-2" d="M365.47,250.31c-2.67,1.33-6.18,1.16-10.45-.52-1.93-.76-3.79-1.72-5.52-2.86-.11-.08-.2-.18-.26-.3-.06-.12-.09-.25-.08-.38,.02-.48,.62-11.66,6.9-14.79,1.1-.55,2.34-.74,3.56-.54,1.21,.2,2.33,.77,3.2,1.64,.87,.87,1.44,1.99,1.64,3.2,.2,1.21,0,2.46-.55,3.56,1.21,.22,2.32,.82,3.17,1.7,.85,.89,1.4,2.02,1.57,3.23,.17,1.22-.04,2.46-.61,3.54-.57,1.09-1.47,1.97-2.57,2.52h0Z"/>
        </g>
        <g id="Group_2" data-name="Group 2">
          <path id="Vector_5" data-name="Vector 5" class="cls-2" d="M147.1,443.62c1.65-2.49,1.9-6,.75-10.43-.52-2.01-1.25-3.97-2.17-5.83-.06-.12-.15-.22-.26-.29s-.24-.12-.37-.13c-.48-.04-11.65-.79-15.52,5.06-.68,1.02-1.02,2.24-.97,3.46,.05,1.23,.48,2.41,1.24,3.38,.76,.97,1.8,1.67,2.98,2.01s2.44,.3,3.6-.11c.07,1.23,.53,2.4,1.31,3.35s1.83,1.64,3.02,1.96c1.19,.32,2.44,.26,3.59-.18s2.13-1.22,2.81-2.24h-.01Z"/>
          <path id="Vector_6" data-name="Vector 6" class="cls-2" d="M316.79,187.09c-1.65,2.49-4.78,4.09-9.31,4.77-2.06,.31-4.14,.4-6.21,.29-.13,0-.26-.05-.37-.13-.11-.07-.2-.17-.26-.29-.22-.43-5.29-10.41-1.42-16.26,.68-1.02,1.66-1.81,2.81-2.24,1.15-.44,2.41-.5,3.59-.18,1.19,.32,2.24,1,3.02,1.96,.78,.95,1.23,2.12,1.3,3.35,1.16-.41,2.42-.45,3.6-.11s2.22,1.05,2.98,2.01c.76,.97,1.19,2.15,1.24,3.38,.05,1.23-.29,2.44-.97,3.46h0Z"/>
        </g>
        <g id="Group_1" data-name="Group 1">
          <path id="Vector_7" data-name="Vector 7" class="cls-2" d="M224.33,463.69c.18-2.98-1.36-6.14-4.57-9.41-1.46-1.48-3.07-2.81-4.79-3.97-.11-.07-.24-.11-.37-.12-.13,0-.27,.02-.39,.07-.43,.21-10.49,5.14-10.91,12.14-.07,1.23,.24,2.45,.9,3.48,.66,1.04,1.62,1.84,2.76,2.3s2.39,.55,3.59,.25c1.19-.29,2.26-.96,3.06-1.89,.68,1.03,1.66,1.81,2.81,2.25s2.4,.5,3.59,.18,2.24-1,3.02-1.95,1.24-2.12,1.31-3.35v.02Z"/>
          <path id="Vector_8" data-name="Vector 8" class="cls-2" d="M243.02,156.68c-.18,2.98-2.09,5.93-5.68,8.78-1.63,1.29-3.38,2.42-5.24,3.36-.12,.06-.25,.08-.39,.07s-.26-.05-.37-.12c-.4-.26-9.79-6.37-9.36-13.37,.07-1.23,.53-2.4,1.31-3.35,.78-.95,1.83-1.63,3.02-1.95,1.19-.32,2.44-.25,3.59,.18,1.15,.44,2.13,1.22,2.81,2.25,.8-.94,1.86-1.6,3.06-1.89,1.19-.29,2.45-.21,3.59,.25s2.11,1.26,2.76,2.3c.66,1.04,.97,2.26,.9,3.48h0Z"/>
        </g>
        <path id="Vector_9" data-name="Vector 9" class="cls-2" d="M301.25,442.45c-1.33-2.67-4.24-4.64-8.66-5.86-2-.55-4.06-.9-6.13-1.04-.13,0-.26,.02-.38,.08s-.22,.15-.3,.26c-.27,.4-6.51,9.69-3.38,15.97,.55,1.1,1.43,2,2.52,2.57s2.33,.79,3.54,.61c1.22-.17,2.35-.72,3.23-1.57,.89-.85,1.48-1.96,1.7-3.17,1.1,.55,2.34,.74,3.55,.55,1.21-.2,2.33-.77,3.2-1.64s1.44-1.99,1.64-3.2c.2-1.21,0-2.46-.54-3.56h0Z"/>
        <path id="Vector_10" data-name="Vector 10" class="cls-2" d="M181.52,167.09c3.33,6.68,2.89,15.46-1.31,26.11-1.91,4.84-4.3,9.46-7.15,13.81-.19,.27-.44,.49-.74,.64s-.63,.22-.96,.21c-1.2-.06-29.15-1.56-36.98-17.25-1.37-2.75-1.84-5.86-1.35-8.89,.49-3.03,1.93-5.83,4.1-8,2.17-2.17,4.97-3.6,8.01-4.09,3.03-.49,6.14,0,8.89,1.36,.55-3.02,2.04-5.79,4.25-7.92s5.04-3.51,8.08-3.94c3.04-.43,6.14,.1,8.86,1.53s4.92,3.67,6.29,6.42h.01Z"/>
        <g id="Group_5" data-name="Group 5">
          <path id="Vector_11" data-name="Vector 11" class="cls-2" d="M377.3,308.37c-2.98-.18-6.14,1.36-9.41,4.57-1.48,1.46-2.81,3.06-3.97,4.79-.07,.11-.11,.24-.12,.37s.02,.27,.07,.39c.21,.43,5.14,10.49,12.14,10.91,1.23,.07,2.45-.24,3.48-.89,1.04-.66,1.84-1.62,2.3-2.76s.55-2.39,.25-3.59c-.29-1.19-.96-2.26-1.89-3.06,1.03-.68,1.81-1.66,2.25-2.81s.5-2.4,.18-3.59-1-2.24-1.95-3.02-2.12-1.24-3.35-1.31h.02Z"/>
          <path id="Vector_12" data-name="Vector 12" class="cls-2" d="M70.3,289.68c2.98,.18,5.93,2.09,8.78,5.68,1.29,1.63,2.42,3.38,3.36,5.24,.06,.12,.08,.25,.07,.39,0,.13-.05,.26-.12,.37-.26,.4-6.37,9.79-13.37,9.36-1.23-.07-2.4-.53-3.35-1.31s-1.63-1.83-1.95-3.02c-.32-1.19-.25-2.44,.18-3.59,.44-1.15,1.22-2.13,2.25-2.81-.94-.8-1.6-1.87-1.89-3.06s-.21-2.45,.25-3.59c.46-1.14,1.26-2.11,2.3-2.76,1.04-.66,2.26-.97,3.48-.9h0Z"/>
        </g>
      </g>
      <circle id="Ellipse_4" data-name="Ellipse 4" class="cls-5" cx="222.95" cy="309.43" r="186.5"/>
    </g>
  </g>
</svg>